<svg height="448pt" viewBox="0 0 448 448" width="448pt" xmlns="http://www.w3.org/2000/svg"><path d="m208 345.054688 32-21.335938v-83.71875h-32zm0 0"/><path d="m203.742188 224h40.515624l66.664063-80h-173.84375zm0 0"/><path d="m224 0c-123.710938 0-224 100.289062-224 224s100.289062 224 224 224 224-100.289062 224-224c-.140625-123.652344-100.347656-223.859375-224-224zm110.144531 141.128906-78.144531 93.765625v93.105469c0 2.675781-1.335938 5.171875-3.558594 6.65625l-48 32c-2.457031 1.636719-5.613281 1.789062-8.214844.398438-2.601562-1.390626-4.226562-4.105469-4.226562-7.054688v-125.105469l-78.144531-93.765625c-1.992188-2.386718-2.421875-5.707031-1.105469-8.519531s4.144531-4.609375 7.25-4.609375h208c3.105469 0 5.933594 1.796875 7.25 4.609375s.886719 6.132813-1.105469 8.519531zm0 0"/></svg>